<?xml version="1.0" standalone="no"?>
<!DOCTYPE svg PUBLIC "-//W3C//DTD SVG 20010904//EN"
 "http://www.w3.org/TR/2001/REC-SVG-20010904/DTD/svg10.dtd">
<svg version="1.0" xmlns="http://www.w3.org/2000/svg"
 width="512.000000pt" height="512.000000pt" viewBox="0 0 512.000000 512.000000"
 preserveAspectRatio="xMidYMid meet">

<g transform="translate(0.000000,512.000000) scale(0.100000,-0.100000)"
fill="#000000" stroke="none">
<path d="M2791 4894 c-19 -24 -21 -40 -21 -150 l0 -124 -705 0 -706 0 -24 -25
-25 -24 0 -756 0 -755 -115 0 -115 0 0 133 c0 127 -1 135 -23 155 -14 13 -36
22 -55 22 -27 0 -82 -47 -439 -377 -224 -208 -414 -390 -422 -404 -12 -22 -12
-31 -2 -55 7 -16 197 -199 422 -407 367 -339 412 -377 442 -377 22 0 41 8 55
23 20 21 22 34 22 155 l0 132 115 0 115 0 0 -755 0 -756 25 -24 24 -25 706 0
705 0 0 -124 c0 -117 2 -127 24 -152 l23 -28 394 43 c1189 129 1561 171 1578
180 10 6 23 23 30 38 8 21 11 562 9 2120 l-3 2092 -22 22 c-19 19 -47 24 -235
45 -1144 126 -1686 184 -1718 184 -30 0 -43 -6 -59 -26z m1003 -234 c457 -50
841 -93 854 -95 l22 -5 0 -2000 0 -2000 -22 -5 c-26 -5 -1676 -185 -1702 -185
-15 0 -16 172 -16 2190 0 2018 1 2190 16 2190 9 0 391 -41 848 -90z m-1024
-2100 l0 -1900 -650 0 -650 0 0 700 0 699 426 3 426 3 24 28 c30 35 31 68 2
102 l-23 25 -671 1 c-369 0 -678 -3 -687 -7 -28 -10 -41 -44 -46 -122 l-6 -73
-287 266 c-159 147 -288 270 -288 275 0 5 129 128 288 274 l287 266 5 -81 c5
-69 9 -84 29 -100 26 -21 -4 -21 896 -19 l480 0 22 26 c30 33 29 66 -1 101
l-24 28 -426 3 -426 3 0 699 0 700 650 0 650 0 0 -1900z"/>
</g>
</svg>
