<?xml version="1.0" standalone="no"?>
<!DOCTYPE svg PUBLIC "-//W3C//DTD SVG 20010904//EN"
 "http://www.w3.org/TR/2001/REC-SVG-20010904/DTD/svg10.dtd">
<svg version="1.0" xmlns="http://www.w3.org/2000/svg"
 width="512.000000pt" height="512.000000pt" viewBox="0 0 512.000000 512.000000"
 preserveAspectRatio="xMidYMid meet">

<g transform="translate(0.000000,512.000000) scale(0.100000,-0.100000)"
fill="#000000" stroke="none">
<path d="M2410 4765 c-257 -55 -472 -235 -568 -475 -27 -67 -52 -180 -52 -237
l0 -43 130 0 130 0 0 63 c0 68 17 97 56 97 42 0 64 -38 64 -109 l0 -51 45 0
44 0 3 151 c3 151 3 152 29 171 23 17 30 18 50 8 13 -7 27 -18 31 -24 4 -6 8
-77 8 -158 l0 -148 60 0 60 0 0 298 c0 277 1 300 18 315 24 22 65 21 85 -1 15
-16 17 -53 17 -315 l0 -297 60 0 60 0 0 148 c0 81 4 152 8 158 4 6 18 17 31
24 20 10 27 9 50 -8 26 -19 26 -20 29 -171 l3 -151 44 0 45 0 0 51 c0 72 22
109 66 109 37 0 54 -31 54 -98 l0 -62 130 0 130 0 0 40 c0 82 -31 195 -82 300
-45 93 -61 115 -147 201 -82 82 -110 103 -191 142 -52 26 -122 54 -155 63 -83
22 -264 27 -345 9z"/>
<path d="M926 4625 c-14 -14 -16 -53 -16 -316 l0 -299 -60 0 -60 0 0 144 c0
161 -9 189 -65 189 -49 0 -55 -21 -55 -185 l0 -148 -50 0 -50 0 0 63 c0 49 -4
68 -18 80 -23 21 -52 22 -78 3 -17 -13 -19 -30 -22 -196 -3 -150 -1 -186 12
-205 21 -32 52 -40 81 -21 21 14 24 25 27 83 l3 68 45 0 45 0 5 -158 c5 -170
8 -177 62 -177 50 0 58 28 58 193 l0 148 58 -3 57 -3 3 -299 c2 -261 4 -302
19 -318 17 -18 49 -23 69 -10 31 20 34 55 34 342 l0 291 58 -3 57 -3 5 -158
c4 -125 8 -160 20 -167 22 -14 53 -12 76 4 17 13 19 30 22 170 l3 156 45 0 44
0 0 -65 c0 -70 20 -105 60 -105 40 0 60 35 60 105 l0 65 95 0 95 0 0 60 0 60
-95 0 -95 0 0 60 c0 65 -21 100 -60 100 -39 0 -60 -35 -60 -100 l0 -60 -44 0
-45 0 -3 150 c-3 163 -10 183 -62 183 -52 0 -56 -12 -56 -179 l0 -154 -60 0
-60 0 0 288 c0 210 -4 294 -13 312 -15 31 -66 39 -91 15z"/>
<path d="M4106 4618 c-14 -19 -16 -66 -16 -315 l0 -293 -60 0 -60 0 0 154 c0
167 -4 179 -56 179 -52 0 -59 -20 -62 -183 l-3 -150 -45 0 -44 0 0 60 c0 65
-21 100 -60 100 -39 0 -60 -35 -60 -100 l0 -60 -95 0 -95 0 0 -60 0 -60 95 0
95 0 0 -65 c0 -70 20 -105 60 -105 40 0 60 35 60 105 l0 65 44 0 45 0 3 -156
c3 -140 5 -157 22 -170 23 -16 54 -18 76 -4 12 7 16 42 20 167 l5 158 58 3 57
3 0 -291 c0 -287 3 -322 34 -342 20 -13 52 -8 69 10 15 16 17 57 19 318 l3
299 58 3 57 3 0 -148 c0 -165 8 -193 58 -193 54 0 57 7 62 177 l5 158 45 0 45
0 3 -68 c3 -58 6 -69 27 -83 29 -19 60 -11 81 21 13 19 15 55 12 205 -3 166
-5 183 -22 196 -27 19 -60 18 -79 -4 -12 -13 -17 -37 -17 -80 l0 -62 -50 0
-50 0 0 148 c0 164 -6 185 -55 185 -56 0 -65 -28 -65 -189 l0 -144 -60 0 -60
0 0 299 c0 259 -2 302 -16 315 -23 24 -70 20 -88 -6z"/>
<path d="M1790 3490 l0 -400 770 0 770 0 0 400 0 401 -127 -3 -128 -3 -3 -65
c-2 -52 -7 -69 -23 -82 -29 -24 -45 -23 -74 7 -21 20 -25 34 -25 85 l0 60 -45
0 -45 0 0 -148 c0 -165 -8 -192 -59 -192 -54 0 -61 21 -61 188 l0 152 -60 0
-60 0 0 -300 c0 -287 -1 -301 -20 -320 -11 -11 -29 -20 -40 -20 -11 0 -29 9
-40 20 -19 19 -20 33 -20 320 l0 300 -60 0 -60 0 0 -153 c0 -136 -2 -156 -18
-170 -26 -24 -68 -21 -86 5 -13 18 -16 53 -16 170 l0 148 -45 0 -45 0 0 -60
c0 -51 -4 -65 -25 -85 -29 -30 -45 -31 -74 -7 -16 13 -21 30 -23 82 l-3 65
-127 3 -128 3 0 -401z"/>
<path d="M1303 2768 c3 -152 10 -245 21 -293 113 -495 465 -861 945 -983 97
-25 122 -27 296 -26 180 0 196 2 307 31 221 59 417 172 578 333 145 145 240
297 305 493 50 149 65 261 65 480 l0 187 -185 0 -185 0 0 -185 c0 -208 -12
-292 -61 -415 -135 -340 -462 -560 -829 -560 -403 0 -746 260 -861 652 -18 62
-22 106 -26 291 l-5 217 -185 0 -185 0 5 -222z"/>
<path d="M1790 2885 l0 -85 770 0 770 0 0 85 0 85 -770 0 -770 0 0 -85z"/>
<path d="M1794 2618 c9 -76 47 -193 87 -269 97 -181 286 -327 493 -379 98 -25
257 -27 359 -4 90 20 234 89 309 148 152 121 261 319 285 514 l6 52 -773 0
-773 0 7 -62z"/>
<path d="M2460 990 l0 -350 95 0 95 0 0 350 0 350 -95 0 -95 0 0 -350z"/>
<path d="M1819 503 c-8 -9 -14 -39 -14 -73 0 -99 -72 -90 751 -90 l723 0 15
22 c9 12 16 43 16 68 0 25 -7 56 -16 68 l-15 22 -723 0 c-661 0 -725 -1 -737
-17z"/>
</g>
</svg>
